<svg xmlns="http://www.w3.org/2000/svg" xmlns:xlink="http://www.w3.org/1999/xlink" width="201.905" height="202.647" viewBox="0 0 201.905 202.647">
  <defs>
    <clipPath id="clip-path">
      <rect id="Rectangle_73" data-name="Rectangle 73" width="201.905" height="202.647" transform="translate(-2 -2)" fill="none"/>
    </clipPath>
  </defs>
  <g id="Group_100" data-name="Group 100" transform="translate(2 2)">
    <g id="Group_99" data-name="Group 99" clip-path="url(#clip-path)">
      <path id="Path_153" data-name="Path 153" d="M136.713,142.11c.237-.726.463-1.456.714-2.177.6-1.719,1.334-3.4,1.781-5.158a6.172,6.172,0,0,0-1.181-5.121c-1.328,1.5-2.531,3.077-3.949,4.423-2.667,2.53-5.438,4.955-8.209,7.373-1.712,1.493-2.858,1.349-3.978-.647a82.868,82.868,0,0,0-8.3-11.678,8.35,8.35,0,0,0-5.188-3.051c-3.254-.613-6.435-1.6-9.669-2.341a81.947,81.947,0,0,0-8.086-1.578,29.369,29.369,0,0,0-5.633.091c-3.2.225-4.767-.961-5.007-4.166-.14-1.873.012-3.766.008-5.65q-.026-9.606-.067-19.211a17.3,17.3,0,0,1,.075-1.791c.321-3.16,2-4.861,5.179-5.168,1.247-.121,2.508-.126,3.763-.127q31.107-.014,62.215-.007a24.173,24.173,0,0,1,2.507.124,5.115,5.115,0,0,1,5,4.955,45.457,45.457,0,0,1,.133,4.661q-.033,31.87-.079,63.742c0,.867.119,1.738.066,2.6a2.185,2.185,0,0,1-3.359,1.962,4.9,4.9,0,0,1-1.71-1.515,12.638,12.638,0,0,1-2.012-5.794,11.293,11.293,0,0,0-4.928-8c-1.1-.776-2.2-1.549-3.26-2.381a7.863,7.863,0,0,1-3.147-4.956c-.112-.683-.479-.645-.963-.393-.81.421-1.625.833-2.437,1.25l-.279-.273" transform="translate(-19.603 -21.117)" fill="#16264e"/>
      <path id="Path_154" data-name="Path 154" d="M222.257,128.446a96.16,96.16,0,0,1-119.863,93.11" transform="translate(-25.107 -31.495)" fill="none" stroke="#16264d" stroke-miterlimit="10" stroke-width="2"/>
      <path id="Path_155" data-name="Path 155" d="M130.618,259.017a4.864,4.864,0,1,1,4.864-4.864,4.864,4.864,0,0,1-4.864,4.864" transform="translate(-30.834 -61.125)" fill="#16264d"/>
      <circle id="Ellipse_16" data-name="Ellipse 16" cx="4.864" cy="4.864" r="4.864" transform="translate(94.92 188.164)" fill="none" stroke="#16264d" stroke-miterlimit="10" stroke-width="2"/>
      <path id="Path_156" data-name="Path 156" d="M6.62,97.077A96.076,96.076,0,0,1,102.7,1" transform="translate(-1.623 -0.245)" fill="none" stroke="#16264d" stroke-miterlimit="10" stroke-width="2"/>
      <path id="Path_157" data-name="Path 157" d="M133.907,1.159a96.076,96.076,0,0,1,96.077,96.077" transform="translate(-32.834 -0.284)" fill="none" stroke="#16264d" stroke-miterlimit="10" stroke-width="2"/>
      <path id="Path_158" data-name="Path 158" d="M102.417,251.74q-.366-.093-.731-.189" transform="translate(-24.933 -61.679)" fill="none" stroke="#16264d" stroke-miterlimit="10" stroke-width="2"/>
      <path id="Path_159" data-name="Path 159" d="M76.533,224.832A96.178,96.178,0,0,1,7.949,145.021" transform="translate(-1.949 -35.559)" fill="none" stroke="#16264d" stroke-miterlimit="10" stroke-width="2" stroke-dasharray="1.986 2.98"/>
      <path id="Path_160" data-name="Path 160" d="M7.738,143.3q-.044-.375-.086-.75" transform="translate(-1.876 -34.952)" fill="none" stroke="#16264d" stroke-miterlimit="10" stroke-width="2"/>
      <path id="Path_161" data-name="Path 161" d="M5.193,128.446l7.057,14.61L5.9,139.88,0,143.817Z" transform="translate(0 -31.495)" fill="#16264d"/>
    </g>
  </g>
</svg>
