<svg xmlns="http://www.w3.org/2000/svg" width="25.133" height="25.04" viewBox="0 0 25.133 25.04">
  <g id="arrow" transform="translate(25.133 12.287) rotate(137)">
    <g id="Group_22" data-name="Group 22" transform="translate(0 0)">
      <path id="Path_9" data-name="Path 9" d="M17.583,6.967a1.273,1.273,0,0,0-.231-.017L4.16,7.031l.288-.142a2.727,2.727,0,0,0,.759-.565l3.723-3.9A1.507,1.507,0,0,0,9.136.567,1.293,1.293,0,0,0,7.268.276,1.381,1.381,0,0,0,7.13.4L.4,7.446A1.449,1.449,0,0,0,.385,9.428h0L7.033,16.4a1.3,1.3,0,0,0,1.892-.014,1.413,1.413,0,0,0,.116-.138,1.5,1.5,0,0,0-.183-1.856l-3.669-3.86a2.639,2.639,0,0,0-.666-.508l-.4-.187,13.138-.08A1.422,1.422,0,0,0,18.68,8.569,1.376,1.376,0,0,0,17.583,6.967Z" transform="translate(0 0)" fill="#0f1d3e"/>
    </g>
  </g>
</svg>
