<svg xmlns="http://www.w3.org/2000/svg" width="29.253" height="29.143" viewBox="0 0 29.253 29.143">
  <g id="arrow" transform="translate(50.969 37.582) rotate(137)">
    <g id="Group_22" data-name="Group 22" transform="translate(0 31.842)">
      <path id="Path_9" data-name="Path 9" d="M20.463,40.015a1.488,1.488,0,0,0-.269-.021H4.834l.335-.163a3.121,3.121,0,0,0,.88-.652l4.307-4.509a1.746,1.746,0,0,0,.226-2.161,1.513,1.513,0,0,0-2.177-.352,1.579,1.579,0,0,0-.159.14L.457,40.45a1.685,1.685,0,0,0,0,2.306h0l7.789,8.153a1.509,1.509,0,0,0,2.2,0,1.615,1.615,0,0,0,.134-.16,1.746,1.746,0,0,0-.226-2.161l-4.3-4.517a3.127,3.127,0,0,0-.779-.6l-.467-.22h15.3a1.637,1.637,0,0,0,.355-3.24Z" transform="translate(0 -31.842)" fill="#1e3962"/>
    </g>
  </g>
</svg>
