<svg xmlns="http://www.w3.org/2000/svg" width="9.668" height="8.679" viewBox="0 0 9.668 8.679">
  <g id="arrow" transform="translate(13.997 4.642) rotate(137)">
    <g id="Group_22" data-name="Group 22" transform="translate(5.919 0) rotate(43)">
      <path id="Path_9" data-name="Path 9" d="M9.087,3.629a.66.66,0,0,0-.12-.009H2.147L2.3,3.548a1.386,1.386,0,0,0,.391-.29l1.913-2A.775.775,0,0,0,4.7.3.672.672,0,0,0,3.732.14.7.7,0,0,0,3.662.2L.2,3.823a.748.748,0,0,0,0,1.024h0L3.662,8.468a.67.67,0,0,0,.978,0A.717.717,0,0,0,4.7,8.4a.775.775,0,0,0-.1-.959L2.69,5.43a1.389,1.389,0,0,0-.346-.264l-.208-.1H8.929a.727.727,0,0,0,.158-1.439Z" transform="translate(0 0)" fill="#1e3962"/>
    </g>
  </g>
</svg>
