<svg xmlns="http://www.w3.org/2000/svg" width="21.506" height="21.426" viewBox="0 0 21.506 21.426">
  <g id="arrow" transform="translate(21.506 10.514) rotate(137)">
    <g id="Group_22" data-name="Group 22" transform="translate(0 0)">
      <path id="Path_9" data-name="Path 9" d="M15.045,5.962a1.09,1.09,0,0,0-.2-.014L3.56,6.016l.247-.121a2.333,2.333,0,0,0,.65-.484L7.642,2.075A1.289,1.289,0,0,0,7.818.485a1.106,1.106,0,0,0-1.6-.249A1.181,1.181,0,0,0,6.1.34L.341,6.371a1.24,1.24,0,0,0-.011,1.7h0l5.688,5.962a1.108,1.108,0,0,0,1.619-.012,1.209,1.209,0,0,0,.1-.118,1.281,1.281,0,0,0-.156-1.588L4.44,9.009a2.258,2.258,0,0,0-.57-.434l-.342-.16L14.77,8.347a1.216,1.216,0,0,0,1.214-1.015A1.178,1.178,0,0,0,15.045,5.962Z" transform="translate(0 0)" fill="#fff"/>
    </g>
  </g>
</svg>
