<svg id="Group_68" data-name="Group 68" xmlns="http://www.w3.org/2000/svg" xmlns:xlink="http://www.w3.org/1999/xlink" width="74.961" height="72.567" viewBox="0 0 74.961 72.567">
  <defs>
    <clipPath id="clip-path">
      <rect id="Rectangle_44" data-name="Rectangle 44" width="74.961" height="72.567" fill="#162b4f"/>
    </clipPath>
  </defs>
  <g id="Group_67" data-name="Group 67" clip-path="url(#clip-path)">
    <path id="Path_118" data-name="Path 118" d="M266.146,101.54v50.053a25.055,25.055,0,0,0,0-50.053Z" transform="translate(-228.32 -87.109)" fill="#162b4f"/>
    <path id="Path_119" data-name="Path 119" d="M85.737,1.255A1.255,1.255,0,0,0,84.483,0H71.939a1.255,1.255,0,0,0-1.255,1.255V5.018H85.737Z" transform="translate(-60.638)" fill="#162b4f"/>
    <path id="Path_120" data-name="Path 120" d="M31.963,48.131H3.183A3.512,3.512,0,0,0,.011,51.894v55.2a3.512,3.512,0,0,0,3.172,3.763h28.78a3.512,3.512,0,0,0,3.173-3.763v-55.2a3.512,3.512,0,0,0-3.173-3.763" transform="translate(-0.001 -41.29)" fill="#162b4f"/>
    <path id="Path_121" data-name="Path 121" d="M460.6,270.932h-4.087a1.3,1.3,0,1,1,0-2.6H460.6a1.3,1.3,0,1,1,0,2.6" transform="translate(-389.115 -230.894)" fill="#162b4f"/>
    <path id="Path_122" data-name="Path 122" d="M426.963,154.959a1.353,1.353,0,0,1-1.316-.964,1.276,1.276,0,0,1,.635-1.462l3.542-1.95a1.4,1.4,0,0,1,1.853.48,1.268,1.268,0,0,1-.491,1.772l-3.542,1.95a1.412,1.412,0,0,1-.681.174" transform="translate(-364.125 -131.175)" fill="#162b4f"/>
    <path id="Path_123" data-name="Path 123" d="M346.191,70.05a1.375,1.375,0,0,1-1.179-.651,1.249,1.249,0,0,1,0-1.3l2.043-3.381a1.4,1.4,0,0,1,1.856-.468,1.269,1.269,0,0,1,.5,1.769L347.372,69.4a1.375,1.375,0,0,1-1.181.65" transform="translate(-295.821 -58.163)" fill="#162b4f"/>
    <path id="Path_124" data-name="Path 124" d="M348.2,456.66a1.376,1.376,0,0,1-1.181-.65l-2.043-3.381a1.249,1.249,0,0,1-.006-1.305,1.4,1.4,0,0,1,2.365,0l2.043,3.381a1.249,1.249,0,0,1,0,1.3A1.376,1.376,0,0,1,348.2,456.66Z" transform="translate(-295.781 -385.093)" fill="#162b4f"/>
    <path id="Path_125" data-name="Path 125" d="M430.511,378.215a1.4,1.4,0,0,1-.681-.174l-3.542-1.95a1.268,1.268,0,0,1-.491-1.772,1.4,1.4,0,0,1,1.853-.48l3.542,1.95a1.276,1.276,0,0,1,.635,1.462A1.354,1.354,0,0,1,430.511,378.215Z" transform="translate(-364.137 -319.975)" fill="#162b4f"/>
  </g>
</svg>
