<svg xmlns="http://www.w3.org/2000/svg" xmlns:xlink="http://www.w3.org/1999/xlink" width="203.193" height="202.44" viewBox="0 0 203.193 202.44">
  <defs>
    <clipPath id="clip-path">
      <path id="Path_210" data-name="Path 210" d="M0,0H203.193V202.44H0Z" transform="translate(-2.283 -1.823)" fill="none"/>
    </clipPath>
  </defs>
  <g id="Group_102" data-name="Group 102" transform="translate(2.283 1.823)">
    <g id="Mask_Group_17" data-name="Mask Group 17" clip-path="url(#clip-path)">
      <path id="Path_162" data-name="Path 162" d="M103.165,53.654c2.074,4.309,4.647,8.378,5.191,13.3.335,3.034,1.661,4.138,4.694,4.456,2.647.277,3.677,1.431,4.244,4.022.509,2.327,1.371,4.578,2.085,6.86.875,2.8,1.91,5.552,2.6,8.392a10.257,10.257,0,0,0,5.77,7.379,23.541,23.541,0,0,1,9.9,8.164,38.586,38.586,0,0,1,2.748,5.588,2.418,2.418,0,0,0,1.407,1.527,10.2,10.2,0,0,1,4.447,3.6c.819,1.078,1.55,2.228,2.428,3.254a15.541,15.541,0,0,0,3.146,3.209c4.7,2.971,7.114,7.312,7.993,12.626.365,2.209.53,4.454.723,6.688.1,1.192-.421,1.66-1.56,2.039-1.311.437-2.57,1.036-3.838,1.593-.989.435-1.937.972-2.944,1.358a5,5,0,0,1-4.484-.3,6.473,6.473,0,0,0-5.143-.688c-8,2.048-16.145,2.1-24.326,1.9-5.8-.145-11.6-.123-17.4-.11-3.253.008-4.747-1.433-4.823-4.692-.06-2.549-.142-5.107-.414-7.639-.249-2.317-1.16-3.192-3.5-3.46a53.623,53.623,0,0,0-5.674-.223c-5.04-.041-6.639-1.659-6.621-6.732q.063-17.933.1-35.866c0-.967-.077-1.933-.086-2.9a2.285,2.285,0,0,1,1.187-2.229,2.334,2.334,0,0,1,2.615.274c.346.246.655.547,1.005.785a34.266,34.266,0,0,0,3.387,2.219c2.868,1.479,5,.924,6.816-1.738a22.8,22.8,0,0,0,3.761-10.5c.355-3.186.412-6.4.7-9.6a35.017,35.017,0,0,1,3.3-11.783,6.663,6.663,0,0,1,.328-.611c.036-.058.122-.086.249-.171" transform="translate(-19.342 -13.004)" fill="#04b0c1"/>
      <path id="Path_163" data-name="Path 163" d="M128.446,1A96.52,96.52,0,0,1,221.9,121.312" transform="translate(-31.131 -0.242)" fill="none" stroke="#04b0c1" stroke-miterlimit="10" stroke-width="2"/>
      <path id="Path_164" data-name="Path 164" d="M259.053,128.434a4.882,4.882,0,1,1-4.882-4.882,4.882,4.882,0,0,1,4.882,4.882" transform="translate(-60.419 -29.945)" fill="#04b0c1"/>
      <circle id="Ellipse_17" data-name="Ellipse 17" cx="4.882" cy="4.882" r="4.882" transform="translate(188.869 93.607)" fill="none" stroke="#04b0c1" stroke-miterlimit="10" stroke-width="2"/>
      <path id="Path_165" data-name="Path 165" d="M97.437,224.724A96.437,96.437,0,0,1,1,128.287" transform="translate(-0.242 -31.093)" fill="none" stroke="#04b0c1" stroke-miterlimit="10" stroke-width="2"/>
      <path id="Path_166" data-name="Path 166" d="M1.159,97.437A96.437,96.437,0,0,1,97.6,1" transform="translate(-0.281 -0.242)" fill="none" stroke="#04b0c1" stroke-miterlimit="10" stroke-width="2"/>
      <path id="Path_167" data-name="Path 167" d="M251.741,159.54q-.093.367-.189.733" transform="translate(-60.968 -38.667)" fill="none" stroke="#04b0c1" stroke-miterlimit="10" stroke-width="2"/>
      <path id="Path_168" data-name="Path 168" d="M225.132,163.381a96.539,96.539,0,0,1-80.111,68.842" transform="translate(-35.148 -39.598)" fill="none" stroke="#04b0c1" stroke-miterlimit="10" stroke-width="2" stroke-dasharray="1.986 2.98"/>
      <path id="Path_169" data-name="Path 169" d="M143.3,254.428q-.376.044-.752.086" transform="translate(-34.549 -61.665)" fill="none" stroke="#04b0c1" stroke-miterlimit="10" stroke-width="2"/>
      <path id="Path_170" data-name="Path 170" d="M128.446,253.048l14.665-7.083-3.189,6.37,3.953,5.925Z" transform="translate(-31.131 -59.614)" fill="#04b0c1"/>
    </g>
  </g>
</svg>
