<svg id="email" xmlns="http://www.w3.org/2000/svg" width="14.658" height="10.978" viewBox="0 0 14.658 10.978">
  <path id="Path_97" data-name="Path 97" d="M8.554,175.476a2.2,2.2,0,0,1-2.45,0l-6.007-4c-.033-.022-.066-.045-.1-.069v6.562a1.349,1.349,0,0,0,1.349,1.349H13.309a1.349,1.349,0,0,0,1.349-1.349V171.4q-.048.036-.1.069Z" transform="translate(0 -168.335)" fill="#4dacbd"/>
  <path id="Path_98" data-name="Path 98" d="M.574,66.688l6.007,4a1.346,1.346,0,0,0,1.5,0l6.007-4a1.286,1.286,0,0,0,.574-1.073,1.35,1.35,0,0,0-1.349-1.349H1.349A1.351,1.351,0,0,0,0,65.616a1.286,1.286,0,0,0,.574,1.072Z" transform="translate(0 -64.266)" fill="#4dacbd"/>
</svg>
