<svg xmlns="http://www.w3.org/2000/svg" width="25.43" height="19.046" viewBox="0 0 25.43 19.046">
  <g id="email" transform="translate(0 -64.266)">
    <path id="Path_205" data-name="Path 205" d="M14.841,178.469a3.825,3.825,0,0,1-4.251,0L.169,171.522c-.058-.039-.114-.079-.169-.12v11.384a2.34,2.34,0,0,0,2.341,2.341H23.089a2.34,2.34,0,0,0,2.341-2.341V171.4c-.055.041-.112.082-.17.12Z" transform="translate(0 -101.815)" fill="#fff"/>
    <path id="Path_206" data-name="Path 206" d="M1,68.468l10.421,6.947a2.335,2.335,0,0,0,2.6,0l10.421-6.947a2.231,2.231,0,0,0,1-1.861,2.343,2.343,0,0,0-2.34-2.34H2.34A2.343,2.343,0,0,0,0,66.607a2.231,2.231,0,0,0,1,1.86Z" fill="#fff"/>
  </g>
</svg>
