<svg xmlns="http://www.w3.org/2000/svg" width="69.567" height="69.567" viewBox="0 0 69.567 69.567">
  <g id="charging-station" transform="translate(0)">
    <path id="Path_108" data-name="Path 108" d="M110.334,94.267h17.754v13.388H110.334Z" transform="translate(-95.343 -81.459)" fill="#162b4f"/>
    <path id="Path_109" data-name="Path 109" d="M67.529,8.732h-.145V4.221a2.038,2.038,0,1,0-4.076,0V8.732H58.652V4.221a2.038,2.038,0,0,0-4.076,0V8.732h-.145a2.038,2.038,0,0,0-2.038,2.038v6.549a8.6,8.6,0,0,0,6.549,8.341V54.431a2.328,2.328,0,0,1-4.656,0V34.783a10.786,10.786,0,0,0-8.732-10.574V7.5a7.5,7.5,0,0,0-7.5-7.5H9.678a7.5,7.5,0,0,0-7.5,7.5v58H2.038a2.038,2.038,0,0,0,0,4.076H45.7a2.038,2.038,0,0,0,0-4.076h-.145V28.408a6.705,6.705,0,0,1,4.656,6.376V54.431a6.4,6.4,0,0,0,12.808,0V25.66a8.6,8.6,0,0,0,6.549-8.341V10.77a2.038,2.038,0,0,0-2.038-2.038ZM30.33,48.793l-4.639,9.278a2.038,2.038,0,1,1-3.646-1.823l3.164-6.328h-5.98a2.038,2.038,0,0,1-1.823-2.95l4.639-9.278a2.038,2.038,0,1,1,3.646,1.823l-3.164,6.328h5.98a2.038,2.038,0,0,1,1.823,2.95Zm6.491-20.559a2.038,2.038,0,0,1-2.038,2.038H12.953a2.038,2.038,0,0,1-2.038-2.038V10.77a2.038,2.038,0,0,1,2.038-2.038h21.83a2.038,2.038,0,0,1,2.038,2.038Z" fill="#162b4f"/>
  </g>
</svg>
