<svg xmlns="http://www.w3.org/2000/svg" xmlns:xlink="http://www.w3.org/1999/xlink" width="162.943" height="161.353" viewBox="0 0 162.943 161.353">
  <defs>
    <clipPath id="clip-path">
      <rect id="Rectangle_84" data-name="Rectangle 84" width="162.943" height="161.353" transform="translate(-2 -2)" fill="none"/>
    </clipPath>
  </defs>
  <g id="Group_106" data-name="Group 106" transform="translate(2 2)">
    <path id="Path_172" data-name="Path 172" d="M115.4,79.011,91.324,112.13h10.192L80.69,145.118,124.658,111.2H112.773L138.01,79.011Z" transform="translate(-32.265 -31.593)" fill="#00a4b6"/>
    <g id="Group_105" data-name="Group 105">
      <g id="Group_104" data-name="Group 104" clip-path="url(#clip-path)">
        <path id="Path_173" data-name="Path 173" d="M128.446,1a76.456,76.456,0,0,1,74.031,95.3" transform="translate(-51.36 -0.4)" fill="none" stroke="#0ca3b5" stroke-miterlimit="10" stroke-width="2"/>
        <path id="Path_174" data-name="Path 174" d="M257.024,127.419a3.867,3.867,0,1,1-3.867-3.867,3.867,3.867,0,0,1,3.867,3.867" transform="translate(-99.68 -49.403)" fill="#0ca3b5"/>
        <circle id="Ellipse_19" data-name="Ellipse 19" cx="3.867" cy="3.867" r="3.867" transform="translate(149.608 74.148)" fill="none" stroke="#0ca3b5" stroke-miterlimit="10" stroke-width="2"/>
        <path id="Path_175" data-name="Path 175" d="M77.39,204.677A76.39,76.39,0,0,1,1,128.287" transform="translate(-0.4 -51.297)" fill="none" stroke="#0ca3b5" stroke-miterlimit="10" stroke-width="2"/>
        <path id="Path_176" data-name="Path 176" d="M1.159,77.39A76.39,76.39,0,0,1,77.549,1" transform="translate(-0.463 -0.4)" fill="none" stroke="#0ca3b5" stroke-miterlimit="10" stroke-width="2"/>
        <path id="Path_177" data-name="Path 177" d="M251.7,159.54q-.074.291-.15.581" transform="translate(-100.585 -63.793)" fill="none" stroke="#0ca3b5" stroke-miterlimit="10" stroke-width="2"/>
        <path id="Path_178" data-name="Path 178" d="M208.479,163.381a76.471,76.471,0,0,1-63.458,54.531" transform="translate(-57.988 -65.329)" fill="none" stroke="#0ca3b5" stroke-miterlimit="10" stroke-width="2" stroke-dasharray="1.986 2.98"/>
        <path id="Path_179" data-name="Path 179" d="M143.144,254.428q-.3.035-.6.068" transform="translate(-56.999 -101.735)" fill="none" stroke="#0ca3b5" stroke-miterlimit="10" stroke-width="2"/>
        <path id="Path_180" data-name="Path 180" d="M128.446,251.576l11.616-5.611-2.526,5.046,3.131,4.694Z" transform="translate(-51.36 -98.351)" fill="#0ca3b5"/>
      </g>
    </g>
  </g>
</svg>
