<svg xmlns="http://www.w3.org/2000/svg" xmlns:xlink="http://www.w3.org/1999/xlink" width="47" height="47" viewBox="0 0 47 47">
  <defs>
    <clipPath id="clip-path">
      <rect id="Rectangle_18" data-name="Rectangle 18" width="36.761" height="25.513" fill="none"/>
    </clipPath>
  </defs>
  <g id="Group_122" data-name="Group 122" transform="translate(-1240 334)">
    <rect id="Rectangle_98" data-name="Rectangle 98" width="47" height="47" rx="10" transform="translate(1240 -334)" fill="#00234f"/>
    <g id="Group_121" data-name="Group 121" transform="translate(1246 -321)">
      <g id="Group_17" data-name="Group 17" transform="translate(-1 -1)" clip-path="url(#clip-path)">
        <path id="Path_4" data-name="Path 4" d="M4.765,18.378H0V.748H4.622V2.933A5.859,5.859,0,0,1,9.71.283c4.371,0,6.379,3.117,6.379,6.987V18.378H11.322V8.094c0-1.972-.967-3.511-3.261-3.511-2.078,0-3.3,1.612-3.3,3.653Z" transform="translate(0 -0.211)" fill="#fff"/>
        <path id="Path_5" data-name="Path 5" d="M87.443,9.443a4.2,4.2,0,1,0-8.385,0c0,2.759,1.756,4.479,4.228,4.479,2.436,0,4.156-1.756,4.156-4.479m-8.886,9.173a3.946,3.946,0,0,0,4.12,3.334c3.01,0,4.694-1.5,4.694-4.91V15.75a5.6,5.6,0,0,1-4.909,2.257c-4.694,0-8.205-3.619-8.205-8.564,0-4.659,3.368-8.6,8.205-8.6,2.795,0,4.407,1.217,5.016,2.4V1.165h4.586V16.9c0,4.837-2.616,9.245-9.244,9.245-4.837,0-8.062-3.011-8.563-6.379Z" transform="translate(-55.303 -0.629)" fill="#fff"/>
      </g>
    </g>
  </g>
</svg>
