<svg id="_003-instagram" data-name="003-instagram" xmlns="http://www.w3.org/2000/svg" width="20.572" height="20.572" viewBox="0 0 20.572 20.572">
  <g id="Group_31" data-name="Group 31">
    <path id="Path_14" data-name="Path 14" d="M15.429,0H5.143A5.158,5.158,0,0,0,0,5.143V15.429a5.158,5.158,0,0,0,5.143,5.143H15.429a5.158,5.158,0,0,0,5.143-5.143V5.143A5.158,5.158,0,0,0,15.429,0ZM10.286,14.571a4.286,4.286,0,1,1,4.286-4.286A4.286,4.286,0,0,1,10.286,14.571ZM15.857,6a1.286,1.286,0,1,1,1.286-1.286A1.285,1.285,0,0,1,15.857,6Z" fill="#1e3962"/>
  </g>
</svg>
