<svg xmlns="http://www.w3.org/2000/svg" width="20.263" height="20.263" viewBox="0 0 20.263 20.263">
  <g id="_x31_0.Linkedin" transform="translate(-10 -10)">
    <path id="Path_11" data-name="Path 11" d="M51.4,49.155V41.734c0-3.647-.785-6.434-5.04-6.434a4.4,4.4,0,0,0-3.977,2.178h-.051V35.629H38.3V49.155h4.2V42.443c0-1.773.329-3.47,2.508-3.47,2.153,0,2.178,2,2.178,3.571V49.13h4.2Z" transform="translate(-21.132 -18.892)" fill="#1e3962"/>
    <path id="Path_12" data-name="Path 12" d="M11.3,36.6h4.2V50.126H11.3Z" transform="translate(-0.971 -19.862)" fill="#1e3962"/>
    <path id="Path_13" data-name="Path 13" d="M12.432,10a2.444,2.444,0,1,0,2.432,2.432A2.432,2.432,0,0,0,12.432,10Z" fill="#1e3962"/>
  </g>
</svg>
