<svg id="_x31_0.Linkedin" xmlns="http://www.w3.org/2000/svg" width="16.772" height="16.772" viewBox="0 0 16.772 16.772">
  <path id="Path_11" data-name="Path 11" d="M49.139,46.768V40.625c0-3.019-.65-5.325-4.172-5.325a3.64,3.64,0,0,0-3.291,1.8h-.042v-1.53H38.3v11.2h3.48V41.212c0-1.468.273-2.872,2.076-2.872,1.782,0,1.8,1.656,1.8,2.956v5.451h3.48Z" transform="translate(-32.367 -29.996)" fill="#4dacbd"/>
  <path id="Path_12" data-name="Path 12" d="M11.3,36.6h3.48V47.8H11.3Z" transform="translate(-11.027 -31.023)" fill="#4dacbd"/>
  <path id="Path_13" data-name="Path 13" d="M12.013,10a2.023,2.023,0,1,0,2.013,2.013A2.013,2.013,0,0,0,12.013,10Z" transform="translate(-10 -10)" fill="#4dacbd"/>
</svg>
