<svg xmlns="http://www.w3.org/2000/svg" xmlns:xlink="http://www.w3.org/1999/xlink" width="199.05" height="70" viewBox="0 0 199.05 70">
  <defs>
    <clipPath id="clip-path">
      <rect id="Rectangle_18" data-name="Rectangle 18" width="199.05" height="70" fill="none" stroke="#707070" stroke-width="1"/>
    </clipPath>
  </defs>
  <g id="Group_18" data-name="Group 18" transform="translate(0 0)">
    <g id="Group_17" data-name="Group 17" transform="translate(0 0)" clip-path="url(#clip-path)">
      <path id="Path_4" data-name="Path 4" d="M13.075,49.929H0V1.558H12.681v6c2.95-5.01,8.75-7.271,13.96-7.271,11.994,0,17.5,8.553,17.5,19.17V49.929H31.065V21.715c0-5.411-2.654-9.634-8.946-9.634-5.7,0-9.045,4.424-9.045,10.024Z" transform="translate(0 -0.085)" fill="#002b4f" stroke="#707070" stroke-width="1"/>
      <path id="Path_5" data-name="Path 5" d="M110.435,24.438c0-7.471-5.112-12.19-11.4-12.19-6.488,0-11.6,4.719-11.6,12.19,0,7.57,4.817,12.289,11.6,12.289,6.685,0,11.4-4.817,11.4-12.289M86.054,49.6c.884,5.312,5.112,9.146,11.305,9.146,8.258,0,12.879-4.129,12.879-13.472V41.74c-1.966,3.146-6.488,6.194-13.468,6.194-12.878,0-22.512-9.93-22.512-23.5C74.257,11.654,83.5.844,96.769.844c7.668,0,12.092,3.339,13.763,6.586V1.725h12.583V44.886c0,13.272-7.176,25.367-25.363,25.367-13.272,0-22.119-8.261-23.5-17.5Z" transform="translate(-22.254 -0.253)" fill="#002b4f" stroke="#707070" stroke-width="1"/>
      <path id="Path_6" data-name="Path 6" d="M243.109,20.153c-.2-4.817-3.343-9.535-10.814-9.535a10.465,10.465,0,0,0-10.814,9.535ZM255.3,35.981c-2.457,8.36-10.126,15.336-22.021,15.336-13.272,0-24.973-9.533-24.973-25.855C208.3,10.027,219.712,0,232.1,0c14.943,0,23.889,9.535,23.889,25.068,0,1.868-.2,3.834-.2,4.031h-34.6c.295,6.393,5.7,11.01,12.19,11.01,6.095,0,9.437-3.048,11.01-7.373Z" transform="translate(-62.426 0)" fill="#002b4f" stroke="#707070" stroke-width="1"/>
      <path id="Path_7" data-name="Path 7" d="M277.629,5.165c.439,0,.685-.214.685-.579s-.246-.6-.685-.6h-.509V5.165Zm-.509,2.117h-.744V3.343h1.359a1.262,1.262,0,0,1,1.334,1.236,1.224,1.224,0,0,1-.864,1.165l.882,1.538h-.849l-.826-1.471h-.291Zm.45.969a2.822,2.822,0,0,0,2.8-2.911,2.8,2.8,0,1,0-5.6,0,2.822,2.822,0,0,0,2.8,2.911m0-6.523a3.62,3.62,0,1,1-3.564,3.613,3.608,3.608,0,0,1,3.564-3.613" transform="translate(-82.115 -0.518)" fill="#002b4f" stroke="#707070" stroke-width="1"/>
      <path id="Path_8" data-name="Path 8" d="M176.906,2.2,158.877,27h7.633l-15.6,24.7,32.927-25.4h-8.9l18.9-24.1Z" transform="translate(-45.227 -0.66)" fill="#002b4f" stroke="#707070" stroke-width="1"/>
    </g>
  </g>
</svg>
