<svg xmlns="http://www.w3.org/2000/svg" width="54.161" height="54.958" viewBox="0 0 54.161 54.958">
  <g id="grid" transform="translate(-2.612)">
    <g id="Group_63" data-name="Group 63" transform="translate(2.612)">
      <g id="Group_62" data-name="Group 62" transform="translate(0)">
        <path id="Path_99" data-name="Path 99" d="M16.949,0H4.2A1.593,1.593,0,0,0,2.612,1.593V14.337A1.593,1.593,0,0,0,4.2,15.93H16.949a1.593,1.593,0,0,0,1.593-1.593V1.593A1.593,1.593,0,0,0,16.949,0Z" transform="translate(-2.612)" fill="#162b4f"/>
        <path id="Path_100" data-name="Path 100" d="M142.337,0H129.593A1.593,1.593,0,0,0,128,1.593V14.337a1.593,1.593,0,0,0,1.593,1.593h12.744a1.593,1.593,0,0,0,1.593-1.593V1.593A1.593,1.593,0,0,0,142.337,0Z" transform="translate(-108.884)" fill="#162b4f"/>
        <path id="Path_101" data-name="Path 101" d="M16.949,125.388H4.2a1.593,1.593,0,0,0-1.593,1.593v12.744A1.593,1.593,0,0,0,4.2,141.318H16.949a1.593,1.593,0,0,0,1.593-1.593V126.981A1.593,1.593,0,0,0,16.949,125.388Z" transform="translate(-2.612 -106.272)" fill="#162b4f"/>
        <path id="Path_102" data-name="Path 102" d="M142.337,125.388H129.593A1.593,1.593,0,0,0,128,126.981v12.744a1.593,1.593,0,0,0,1.593,1.593h12.744a1.593,1.593,0,0,0,1.593-1.593V126.981A1.593,1.593,0,0,0,142.337,125.388Z" transform="translate(-108.884 -106.272)" fill="#162b4f"/>
        <path id="Path_103" data-name="Path 103" d="M267.725,0H254.981a1.593,1.593,0,0,0-1.593,1.593V14.337a1.593,1.593,0,0,0,1.593,1.593h12.744a1.593,1.593,0,0,0,1.593-1.593V1.593A1.593,1.593,0,0,0,267.725,0Z" transform="translate(-215.157)" fill="#4dacbd"/>
        <path id="Path_104" data-name="Path 104" d="M267.725,125.388H254.981a1.593,1.593,0,0,0-1.593,1.593v12.744a1.593,1.593,0,0,0,1.593,1.593h12.744a1.593,1.593,0,0,0,1.593-1.593V126.981A1.593,1.593,0,0,0,267.725,125.388Z" transform="translate(-215.157 -106.272)" fill="#162b4f"/>
        <path id="Path_105" data-name="Path 105" d="M16.949,256H4.2a1.593,1.593,0,0,0-1.593,1.593v12.744A1.593,1.593,0,0,0,4.2,271.93H16.949a1.593,1.593,0,0,0,1.593-1.593V257.593A1.593,1.593,0,0,0,16.949,256Z" transform="translate(-2.612 -216.972)" fill="#162b4f"/>
        <path id="Path_106" data-name="Path 106" d="M142.337,256H129.593A1.593,1.593,0,0,0,128,257.593v12.744a1.593,1.593,0,0,0,1.593,1.593h12.744a1.593,1.593,0,0,0,1.593-1.593V257.593A1.593,1.593,0,0,0,142.337,256Z" transform="translate(-108.884 -216.972)" fill="#e8456f"/>
        <path id="Path_107" data-name="Path 107" d="M267.725,256H254.981a1.593,1.593,0,0,0-1.593,1.593v12.744a1.593,1.593,0,0,0,1.593,1.593h12.744a1.593,1.593,0,0,0,1.593-1.593V257.593A1.593,1.593,0,0,0,267.725,256Z" transform="translate(-215.157 -216.972)" fill="#162b4f"/>
      </g>
    </g>
  </g>
</svg>
