<svg xmlns="http://www.w3.org/2000/svg" xmlns:xlink="http://www.w3.org/1999/xlink" width="202.634" height="200.647" viewBox="0 0 202.634 200.647">
  <defs>
    <clipPath id="clip-path">
      <rect id="Rectangle_72" data-name="Rectangle 72" width="202.634" height="200.647" transform="translate(-2)" fill="none"/>
    </clipPath>
  </defs>
  <g id="Group_98" data-name="Group 98" transform="translate(2)">
    <g id="Group_97" data-name="Group 97" clip-path="url(#clip-path)">
      <path id="Path_144" data-name="Path 144" d="M85.117,80.812q1.829.25,3.657.5c.2.027.4.052.594.1,2.75.612,3.081.967,3.553,3.744.284,1.668.633,3.326.861,5,.211,1.547,1.283,2.036,2.574,2.376a2.419,2.419,0,0,0,2.765-1.049c1.167-1.536,1.775-1.577,3.315-.365a3.984,3.984,0,0,1,1.692,3.056,10.677,10.677,0,0,0,1.991,5.861,9.744,9.744,0,0,0,3.157,2.987,18,18,0,0,1,2.952,1.921,27.324,27.324,0,0,1,2.383,2.665c1.426,1.606,2.84,3.222,4.31,4.786.173.184.7.164,1.01.068,1.724-.532,3.446-1.077,5.141-1.7a4.13,4.13,0,0,1,3.645.3c1.339.774,2.634,1.627,3.929,2.475a5.288,5.288,0,0,0,3.083.894c3.678-.059,7.359.011,11.033-.121,3.312-.12,5.969,1.4,8.617,3.049.219.136.42.3.639.438a4.528,4.528,0,0,1,2.155,5.025c-.24,1.414-.5,2.827-.664,4.25-.171,1.495.308,2.11,1.771,2.457.977.232,1.969.4,2.941.649a14.86,14.86,0,0,1,5.135,2.343,14.75,14.75,0,0,0,2.875,1.719,10.764,10.764,0,0,1,5.636,5.4c-1.223.552-2.5,1.1-3.748,1.695-3.746,1.773-7.8,2.3-11.828,2.875-2.382.341-4.776.677-7.176.8a12.976,12.976,0,0,0-8.277,3.567c-1.171,1.059-2.381,2.074-3.6,3.083a2.772,2.772,0,0,1-3.624.336c-.823-.542-1.527-.147-2.112.531.479,1.232.971,2.447,1.424,3.677.48,1.3.092,2.046-1.277,2.318a4.918,4.918,0,0,1-4.9-1.384c-1.134-1.252-2.168-2.6-3.193-3.946-1.288-1.693-2.434-3.563-4.392-4.539-1.524-.761-3.2-1.208-4.8-1.825a8.677,8.677,0,0,1-1.144-.646,6.713,6.713,0,0,1,.689-1.127c.4-.443.908-.792,1.344-1.208a3.6,3.6,0,0,0,.719-.85c.5-.929.953-1.955.258-2.916-.716-.987-1.811-.622-2.788-.42a2.092,2.092,0,0,0-1.843,2.033,6.222,6.222,0,0,1-4.815,5.2c-1.825.407-3.057,1.643-4.306,2.867a6.212,6.212,0,0,1-3.27,1.952,3.393,3.393,0,0,1-3.355-1.082c-.436-.5-.852-1.009-1.284-1.509a3.511,3.511,0,0,0-2.681-1.352,7.032,7.032,0,0,1-4.24-1.867,31.574,31.574,0,0,0-3.956-2.55,4.9,4.9,0,0,0-3.929-.33c-.851.258-1.708.5-2.572.7a1.94,1.94,0,0,1-2.563-1.274,9.117,9.117,0,0,1-.546-3.183c.177-4.85.463-9.7.717-14.543q.475-9.035.96-18.068Q80.4,94.367,81,82.061c.033-.7.308-.964.952-1.021.539-.048,1.073-.15,1.609-.228Z" transform="translate(-18.923 -19.586)" fill="#ef5d80"/>
      <path id="Path_145" data-name="Path 145" d="M103.881,222.706A96.52,96.52,0,0,1,10.422,102.394" transform="translate(-1.804 -24.817)" fill="none" stroke="#ef5e81" stroke-miterlimit="10" stroke-width="2"/>
      <path id="Path_146" data-name="Path 146" d="M1,130.636a4.882,4.882,0,1,1,4.882,4.882A4.882,4.882,0,0,1,1,130.636" transform="translate(-0.242 -30.479)" fill="#ef5f81"/>
      <circle id="Ellipse_15" data-name="Ellipse 15" cx="4.882" cy="4.882" r="4.882" transform="translate(0.013 104.159) rotate(-80.41)" fill="none" stroke="#ef5e81" stroke-miterlimit="10" stroke-width="2"/>
      <path id="Path_147" data-name="Path 147" d="M134.89,6.62a96.437,96.437,0,0,1,96.437,96.437" transform="translate(-32.693 -1.604)" fill="none" stroke="#ef5e81" stroke-miterlimit="10" stroke-width="2"/>
      <path id="Path_148" data-name="Path 148" d="M231.168,133.907a96.437,96.437,0,0,1-96.437,96.437" transform="translate(-32.654 -32.455)" fill="none" stroke="#ef5e81" stroke-miterlimit="10" stroke-width="2"/>
      <path id="Path_149" data-name="Path 149" d="M11.375,102.419q.093-.367.19-.733" transform="translate(-2.757 -24.645)" fill="none" stroke="#ef5e81" stroke-miterlimit="10" stroke-width="2"/>
      <path id="Path_150" data-name="Path 150" d="M12.418,76.791A96.539,96.539,0,0,1,92.529,7.949" transform="translate(-3.01 -1.927)" fill="none" stroke="#ef5e81" stroke-miterlimit="10" stroke-width="2" stroke-dasharray="1.986 2.98"/>
      <path id="Path_151" data-name="Path 151" d="M119.635,7.739q.376-.044.753-.086" transform="translate(-28.996 -1.855)" fill="none" stroke="#ef5e81" stroke-miterlimit="10" stroke-width="2"/>
      <path id="Path_152" data-name="Path 152" d="M129.8,5.213,115.131,12.3l3.188-6.37L114.367,0Z" transform="translate(-27.719 0)" fill="#ef5e81"/>
    </g>
  </g>
</svg>
