<svg id="Group_66" data-name="Group 66" xmlns="http://www.w3.org/2000/svg" xmlns:xlink="http://www.w3.org/1999/xlink" width="81.803" height="55.509" viewBox="0 0 81.803 55.509">
  <defs>
    <clipPath id="clip-path">
      <rect id="Rectangle_43" data-name="Rectangle 43" width="81.803" height="55.509" fill="#162b4f"/>
    </clipPath>
  </defs>
  <path id="Path_110" data-name="Path 110" d="M126.513,30.378l7.513,8.764h10.76l-7.513-8.764Z" transform="translate(-77.844 -18.692)" fill="#162b4f"/>
  <g id="Group_65" data-name="Group 65">
    <g id="Group_64" data-name="Group 64" clip-path="url(#clip-path)">
      <path id="Path_111" data-name="Path 111" d="M98.443,30.378h-11.3l6.325,7.377a4.406,4.406,0,0,1,.795,1.388h11.686Z" transform="translate(-53.622 -18.692)" fill="#162b4f"/>
      <path id="Path_112" data-name="Path 112" d="M182.223,39.143l-7.513-8.764H164.485L172,39.143Z" transform="translate(-101.209 -18.692)" fill="#162b4f"/>
      <path id="Path_113" data-name="Path 113" d="M118.745,8.765,111.234,0H100.471l7.51,8.764Z" transform="translate(-61.821 0)" fill="#162b4f"/>
      <path id="Path_114" data-name="Path 114" d="M106.323,92.893h39.441a1.461,1.461,0,0,0,1.461-1.461V60.756h-40.9Z" transform="translate(-65.422 -37.384)" fill="#162b4f"/>
      <path id="Path_115" data-name="Path 115" d="M148,0h-9.553l7.508,8.764h10.225L149.111.511A1.476,1.476,0,0,0,148,0" transform="translate(-85.188)" fill="#162b4f"/>
      <path id="Path_116" data-name="Path 116" d="M79.911,8.765,72.4,0H61.1l7.516,8.764Z" transform="translate(-37.594 0)" fill="#162b4f"/>
      <rect id="Rectangle_42" data-name="Rectangle 42" width="11.686" height="21.912" transform="translate(13.147 33.597)" fill="#162b4f"/>
      <path id="Path_117" data-name="Path 117" d="M20.1.548A1.507,1.507,0,0,0,17.969.46c-.03.028-.06.057-.087.087L.352,21A1.461,1.461,0,0,0,0,21.949V54.086a1.461,1.461,0,0,0,1.461,1.461h8.764V32.175a1.461,1.461,0,0,1,1.461-1.461H26.294a1.461,1.461,0,0,1,1.461,1.461V55.547H37.98v-33.6A1.463,1.463,0,0,0,37.628,21Z" transform="translate(0 -0.038)" fill="#162b4f"/>
    </g>
  </g>
</svg>
