<svg xmlns="http://www.w3.org/2000/svg" width="17.841" height="14.496" viewBox="0 0 17.841 14.496">
  <path id="_001-twitter" data-name="001-twitter" d="M17.841,49.716a7.626,7.626,0,0,1-2.107.578,3.637,3.637,0,0,0,1.609-2.022,7.309,7.309,0,0,1-2.319.885,3.657,3.657,0,0,0-6.327,2.5,3.766,3.766,0,0,0,.085.834,10.353,10.353,0,0,1-7.539-3.826,3.658,3.658,0,0,0,1.124,4.888A3.612,3.612,0,0,1,.714,53.1v.04a3.674,3.674,0,0,0,2.93,3.594,3.65,3.65,0,0,1-.959.12,3.234,3.234,0,0,1-.692-.062A3.692,3.692,0,0,0,5.41,59.345,7.349,7.349,0,0,1,.875,60.9,6.851,6.851,0,0,1,0,60.854,10.3,10.3,0,0,0,5.611,62.5a10.338,10.338,0,0,0,10.41-10.408c0-.162-.006-.318-.013-.473A7.3,7.3,0,0,0,17.841,49.716Z" transform="translate(0 -48)" fill="#4dacbd"/>
</svg>
