<svg xmlns="http://www.w3.org/2000/svg" xmlns:xlink="http://www.w3.org/1999/xlink" width="123.94" height="123.788" viewBox="0 0 123.94 123.788">
  <defs>
    <clipPath id="clip-path">
      <rect id="Rectangle_97" data-name="Rectangle 97" width="123.94" height="123.788" transform="translate(-2 -2)" fill="none"/>
    </clipPath>
  </defs>
  <g id="Group_120" data-name="Group 120" transform="translate(2 2)">
    <g id="Group_119" data-name="Group 119" clip-path="url(#clip-path)">
      <path id="Path_198" data-name="Path 198" d="M206.464,28.22a59.522,59.522,0,0,1-.539,93.948" transform="translate(-109.713 -15.035)" fill="none" stroke="#04b0c1" stroke-miterlimit="10" stroke-width="2"/>
      <path id="Path_199" data-name="Path 199" d="M23.722,133.042a59.471,59.471,0,0,1-10-83.508" transform="translate(-0.533 -26.391)" fill="none" stroke="#04b0c1" stroke-miterlimit="10" stroke-width="2"/>
      <path id="Path_200" data-name="Path 200" d="M28.344,23.722a59.471,59.471,0,0,1,83.508-10" transform="translate(-15.101 -0.533)" fill="none" stroke="#04b0c1" stroke-miterlimit="10" stroke-width="2"/>
      <path id="Path_201" data-name="Path 201" d="M202.6,231.377l-.38.272" transform="translate(-107.738 -123.273)" fill="none" stroke="#ef5d80" stroke-miterlimit="10" stroke-width="2"/>
      <path id="Path_202" data-name="Path 202" d="M119.384,230.288a59.5,59.5,0,0,1-70.5-2.946" transform="translate(-26.043 -121.123)" fill="none" stroke="#ef5d80" stroke-miterlimit="10" stroke-width="2" stroke-dasharray="1.978 2.966"/>
      <path id="Path_203" data-name="Path 203" d="M47.32,226.065l-.36-.3" transform="translate(-25.019 -120.284)" fill="none" stroke="#ef5d80" stroke-miterlimit="10" stroke-width="2"/>
      <path id="Path_204" data-name="Path 204" d="M129.99,127.813h-5.459a21.571,21.571,0,0,1-17.461-8.974,21.568,21.568,0,0,1-17.46,8.974H84.146v-8.059h5.462c7.029,0,13.431-7.042,13.431-14.775V99.609h-6.4l10.431-17.64L117.5,99.609h-6.4v5.372c0,7.732,6.4,14.775,13.432,14.775h5.462Z" transform="translate(-47.831 -46.886)" fill="#002c4f"/>
    </g>
  </g>
</svg>
